<svg xmlns="http://www.w3.org/2000/svg" version="1.1" xmlns:xlink="http://www.w3.org/1999/xlink" xmlns:svgjs="http://svgjs.dev/svgjs" width="2000" height="1500" viewBox="0 0 2000 1500"><rect width="2000" height="1500" fill="#1f2d5a"></rect><g transform="matrix(0.40899795501022496,0,0,0.40899795501022496,590.9641899287475,250.40560591894643)"><svg viewBox="0 0 202 247" data-background-color="#1f2d5a" preserveAspectRatio="xMidYMid meet" height="2445" width="2000" xmlns="http://www.w3.org/2000/svg" xmlns:xlink="http://www.w3.org/1999/xlink"><g id="tight-bounds" transform="matrix(1,0,0,1,0.00934811804546598,-0.09997365579206985)"><svg viewBox="0 0 201.98130376390904 247.2" height="247.2" width="201.98130376390904"><g><svg viewBox="0 0 201.98130376390904 247.2" height="247.2" width="201.98130376390904"><g><svg viewBox="0 0 201.98130376390904 247.2" height="247.2" width="201.98130376390904"><g id="textblocktransform"><svg viewBox="0 0 201.98130376390904 247.2" height="247.2" width="201.98130376390904" id="textblock"><g><svg viewBox="0 0 201.98130376390904 247.2" height="247.2" width="201.98130376390904"><path d="M201.508 53.02C200.559 27.36 197.853 20.227 197.853 20.227 189.544-6.202 179.175-0.506 169.86 3.292 153.413 3.446 137.033 9.091 120.625 12.119 86.185 12.581 51.45 4.986 17.18 23.717 13.961 29.464-3.34 24.846 0.573 56.304 1.598 69.39 5.339 83.913 5.225 95.922 5.738 98.026 6.45 93.202 6.754 96.23 7.818 104.39 9.555 100.541 10.98 105.365 8.995 118.246 10.419 128.971 11.777 140.21 9.384 143.135 6.317 141.749 4.941 151.449 4.798 158.479 4.029 157.145 3.184 156.837 2.567 156.632 1.323 157.402 1.532 159.608 2.244 167.152-0.814 171.514 1.104 178.904-0.216 186.91 2.016 193.838 1.712 202.511 1.674 204.255 1.883 205.744 2.215 206.154 3.687 208.361 1.541 212.672 1.769 217.342 16.867 249.262 33.247 227.195 48.715 241.872 52.732 231.608 49.712 245.516 51.317 243.36 52.57 240.846 53.482 251.263 54.897 245.362 55.115 243.668 54.783 239.665 55.561 240.435 55.97 240.846 56.331 240.743 56.388 238.382 56.473 234.841 55.723 237.048 55.523 235.201 57.679 225.861 57.147 248.081 59.17 247.158 59.075 244.438 58.486 240.538 59.692 241.051 60.888 237.151 60.926 233.918 61.99 242.693 62.028 244.592 62.218 245.926 62.522 246.85 65.845 237.305 69.15 250.237 72.634 245.926 74.771 241.205 76.822 248.492 78.987 246.696 79.747 245.259 80.516 242.693 81.247 247.004 90.201 247.928 99.744 244.079 108.233 247.158 130.918 241.41 155.161 249.518 179.08 241.923 184.72 238.998 190.579 234.841 196.077 231.506 196.077 231.506 200.53 222.371 200.53 181.316S201.48 145.393 201.622 112.703C201.765 80.013 202.429 78.679 201.48 53.02Z" opacity="1" fill="#fbfbfb" data-fill-palette-color="tertiary"></path><g transform="matrix(1,0,0,1,55.76832,26.230666666666668)"><svg width="90.44466376390903" viewBox="3.8 -34.45 16 34.45" height="194.73866666666666" data-palette-color="#1f2d5a"><path d="M3.8-34.45L8.35-34.45 8.35-4 19.8-4 19.3 0 3.8 0 3.8-34.45Z" opacity="1" transform="matrix(1,0,0,1,0,0)" fill="#1f2d5a" class="wordmark-text-0" data-fill-palette-color="quaternary" id="text-0"></path></svg></g></svg></g></svg></g></svg></g><g></g></svg></g><defs></defs></svg><rect width="201.98130376390904" height="247.2" fill="none" stroke="none" visibility="hidden"></rect></g></svg></g></svg>